<mxfile host="65bd71144e">
    <diagram id="wFIsRHjnmbIZqMemAcd0" name="Page-1">
        <mxGraphModel dx="823" dy="794" grid="1" gridSize="10" guides="1" tooltips="1" connect="1" arrows="1" fold="1" page="1" pageScale="1" pageWidth="850" pageHeight="1100" math="0" shadow="0">
            <root>
                <mxCell id="0"/>
                <mxCell id="1" parent="0"/>
                <mxCell id="10" value="" style="rounded=0;whiteSpace=wrap;html=1;fontSize=14;fillColor=#FFFFCC;" vertex="1" parent="1">
                    <mxGeometry x="533" y="65" width="170" height="60" as="geometry"/>
                </mxCell>
                <mxCell id="9" value="" style="rounded=0;whiteSpace=wrap;html=1;fontSize=14;fillColor=#FFFFCC;" vertex="1" parent="1">
                    <mxGeometry x="363" y="65" width="170" height="60" as="geometry"/>
                </mxCell>
                <mxCell id="8" value="" style="rounded=0;whiteSpace=wrap;html=1;fontSize=14;fillColor=#FFFFCC;" vertex="1" parent="1">
                    <mxGeometry x="193" y="65" width="170" height="60" as="geometry"/>
                </mxCell>
                <mxCell id="7" value="" style="rounded=0;whiteSpace=wrap;html=1;fontSize=14;fillColor=#FFFFCC;" vertex="1" parent="1">
                    <mxGeometry x="22" y="65" width="170" height="60" as="geometry"/>
                </mxCell>
                <mxCell id="2" value="&lt;font style=&quot;font-size: 14px;&quot;&gt;■ ① プロジェクトを登録、②マイルストーンを登録、③タスクを登録、④タスクを確認&lt;/font&gt;" style="text;html=1;strokeColor=none;fillColor=none;align=left;verticalAlign=middle;whiteSpace=wrap;rounded=0;fontStyle=1" vertex="1" parent="1">
                    <mxGeometry width="580" height="30" as="geometry"/>
                </mxCell>
                <mxCell id="3" value="&lt;span style=&quot;font-size: 14px;&quot;&gt;PG&lt;/span&gt;" style="text;html=1;strokeColor=none;fillColor=none;align=center;verticalAlign=middle;whiteSpace=wrap;rounded=0;" vertex="1" parent="1">
                    <mxGeometry x="47" y="80" width="120" height="30" as="geometry"/>
                </mxCell>
                <mxCell id="4" value="&lt;span style=&quot;font-size: 14px;&quot;&gt;SE&lt;/span&gt;" style="text;html=1;strokeColor=none;fillColor=none;align=center;verticalAlign=middle;whiteSpace=wrap;rounded=0;" vertex="1" parent="1">
                    <mxGeometry x="218" y="80" width="120" height="30" as="geometry"/>
                </mxCell>
                <mxCell id="5" value="&lt;span style=&quot;font-size: 14px;&quot;&gt;タスク管理&lt;br&gt;システム&lt;br&gt;&lt;/span&gt;" style="text;html=1;strokeColor=none;fillColor=none;align=center;verticalAlign=middle;whiteSpace=wrap;rounded=0;" vertex="1" parent="1">
                    <mxGeometry x="388" y="80" width="120" height="30" as="geometry"/>
                </mxCell>
                <mxCell id="6" value="&lt;span style=&quot;font-size: 14px;&quot;&gt;ドキュメント管理&lt;br&gt;(Googleドライブ)&lt;br&gt;&lt;/span&gt;" style="text;html=1;strokeColor=none;fillColor=none;align=center;verticalAlign=middle;whiteSpace=wrap;rounded=0;" vertex="1" parent="1">
                    <mxGeometry x="558" y="80" width="120" height="30" as="geometry"/>
                </mxCell>
                <mxCell id="11" value="" style="rounded=0;whiteSpace=wrap;html=1;fontSize=14;fillColor=none;" vertex="1" parent="1">
                    <mxGeometry x="22" y="125" width="168" height="835" as="geometry"/>
                </mxCell>
                <mxCell id="12" value="" style="rounded=0;whiteSpace=wrap;html=1;fontSize=14;fillColor=none;" vertex="1" parent="1">
                    <mxGeometry x="194" y="125" width="168" height="835" as="geometry"/>
                </mxCell>
                <mxCell id="13" value="" style="rounded=0;whiteSpace=wrap;html=1;fontSize=14;fillColor=none;" vertex="1" parent="1">
                    <mxGeometry x="364" y="125" width="168" height="835" as="geometry"/>
                </mxCell>
                <mxCell id="14" value="" style="rounded=0;whiteSpace=wrap;html=1;fontSize=14;fillColor=none;" vertex="1" parent="1">
                    <mxGeometry x="530" y="125" width="173" height="835" as="geometry"/>
                </mxCell>
                <mxCell id="19" style="edgeStyle=none;html=1;fontSize=14;strokeColor=#FF0000;" edge="1" parent="1" source="16" target="17">
                    <mxGeometry relative="1" as="geometry"/>
                </mxCell>
                <mxCell id="16" value="" style="ellipse;whiteSpace=wrap;html=1;aspect=fixed;fontSize=14;fillColor=#000000;" vertex="1" parent="1">
                    <mxGeometry x="258" y="140" width="40" height="40" as="geometry"/>
                </mxCell>
                <mxCell id="20" style="edgeStyle=none;html=1;entryX=0;entryY=0.5;entryDx=0;entryDy=0;strokeColor=#FF0000;fontSize=14;" edge="1" parent="1" source="17" target="18">
                    <mxGeometry relative="1" as="geometry"/>
                </mxCell>
                <mxCell id="17" value="プロジェクト&lt;br&gt;情報を入力" style="rounded=1;whiteSpace=wrap;html=1;fontSize=14;fillColor=#CCE5FF;" vertex="1" parent="1">
                    <mxGeometry x="218" y="220" width="120" height="60" as="geometry"/>
                </mxCell>
                <mxCell id="23" style="edgeStyle=none;html=1;entryX=0.5;entryY=0;entryDx=0;entryDy=0;strokeColor=#FF0000;fontSize=14;" edge="1" parent="1" source="18" target="21">
                    <mxGeometry relative="1" as="geometry"/>
                </mxCell>
                <mxCell id="18" value="プロジェクトを&lt;br&gt;登録" style="rounded=1;whiteSpace=wrap;html=1;fontSize=14;fillColor=#CCE5FF;" vertex="1" parent="1">
                    <mxGeometry x="388" y="220" width="120" height="60" as="geometry"/>
                </mxCell>
                <mxCell id="24" style="edgeStyle=none;html=1;entryX=0;entryY=0.5;entryDx=0;entryDy=0;strokeColor=#FF0000;fontSize=14;" edge="1" parent="1" source="21" target="22">
                    <mxGeometry relative="1" as="geometry"/>
                </mxCell>
                <mxCell id="27" style="edgeStyle=none;html=1;entryX=0.5;entryY=0;entryDx=0;entryDy=0;strokeColor=#FF0000;fontSize=14;" edge="1" parent="1" source="21" target="25">
                    <mxGeometry relative="1" as="geometry"/>
                </mxCell>
                <mxCell id="21" value="&lt;font style=&quot;font-size: 11px;&quot;&gt;マイルストーンを入力&lt;br&gt;（一括入力可能）&lt;br&gt;&lt;/font&gt;" style="rounded=1;whiteSpace=wrap;html=1;fontSize=14;fillColor=#CCE5FF;" vertex="1" parent="1">
                    <mxGeometry x="218" y="320" width="120" height="60" as="geometry"/>
                </mxCell>
                <mxCell id="22" value="&lt;font style=&quot;&quot;&gt;&lt;font style=&quot;font-size: 14px;&quot;&gt;マイルストーンを&lt;br&gt;一括登録&lt;/font&gt;&lt;br&gt;&lt;/font&gt;" style="rounded=1;whiteSpace=wrap;html=1;fontSize=14;fillColor=#CCE5FF;" vertex="1" parent="1">
                    <mxGeometry x="388" y="320" width="120" height="60" as="geometry"/>
                </mxCell>
                <mxCell id="28" style="edgeStyle=none;html=1;strokeColor=#FF0000;fontSize=14;" edge="1" parent="1" source="25" target="26">
                    <mxGeometry relative="1" as="geometry"/>
                </mxCell>
                <mxCell id="25" value="&lt;font style=&quot;font-size: 11px;&quot;&gt;設計書をドライブに&lt;br&gt;アップロード&lt;br&gt;&lt;/font&gt;" style="rounded=1;whiteSpace=wrap;html=1;fontSize=14;fillColor=#CCE5FF;" vertex="1" parent="1">
                    <mxGeometry x="218" y="420" width="120" height="60" as="geometry"/>
                </mxCell>
                <mxCell id="30" style="edgeStyle=none;html=1;entryX=0.5;entryY=0;entryDx=0;entryDy=0;strokeColor=#FF0000;fontSize=14;" edge="1" parent="1" source="26" target="29">
                    <mxGeometry relative="1" as="geometry"/>
                </mxCell>
                <mxCell id="26" value="&lt;font style=&quot;font-size: 11px;&quot;&gt;設計書を保存して、&lt;br&gt;閲覧URlを発行&lt;br&gt;&lt;/font&gt;" style="rounded=1;whiteSpace=wrap;html=1;fontSize=14;fillColor=#CCE5FF;" vertex="1" parent="1">
                    <mxGeometry x="558" y="420" width="120" height="60" as="geometry"/>
                </mxCell>
                <mxCell id="32" style="edgeStyle=none;html=1;entryX=0.5;entryY=0;entryDx=0;entryDy=0;strokeColor=#FF0000;fontSize=14;" edge="1" parent="1" source="29" target="31">
                    <mxGeometry relative="1" as="geometry"/>
                </mxCell>
                <mxCell id="29" value="&lt;font style=&quot;font-size: 11px;&quot;&gt;タスク情報を入力&lt;br&gt;（閲覧URLも入力）&lt;br&gt;&lt;/font&gt;" style="rounded=1;whiteSpace=wrap;html=1;fontSize=14;fillColor=#CCE5FF;" vertex="1" parent="1">
                    <mxGeometry x="218" y="520" width="120" height="60" as="geometry"/>
                </mxCell>
                <mxCell id="34" style="edgeStyle=none;html=1;entryX=0;entryY=0.5;entryDx=0;entryDy=0;strokeColor=#FF0000;fontSize=14;" edge="1" parent="1" source="31" target="33">
                    <mxGeometry relative="1" as="geometry"/>
                </mxCell>
                <mxCell id="31" value="&lt;font style=&quot;font-size: 11px;&quot;&gt;マイルストーンと&lt;br&gt;タスクを紐づける&lt;br&gt;&lt;/font&gt;" style="rounded=1;whiteSpace=wrap;html=1;fontSize=14;fillColor=#CCE5FF;" vertex="1" parent="1">
                    <mxGeometry x="218" y="620" width="120" height="60" as="geometry"/>
                </mxCell>
                <mxCell id="37" style="edgeStyle=none;html=1;strokeColor=#FF0000;fontSize=14;entryX=0.5;entryY=0;entryDx=0;entryDy=0;" edge="1" parent="1" source="33" target="36">
                    <mxGeometry relative="1" as="geometry">
                        <mxPoint x="448" y="820" as="targetPoint"/>
                    </mxGeometry>
                </mxCell>
                <mxCell id="33" value="&lt;font style=&quot;&quot;&gt;&lt;font style=&quot;font-size: 14px;&quot;&gt;タスクを登録&lt;/font&gt;&lt;br&gt;&lt;/font&gt;" style="rounded=1;whiteSpace=wrap;html=1;fontSize=14;fillColor=#CCE5FF;" vertex="1" parent="1">
                    <mxGeometry x="388" y="620" width="120" height="60" as="geometry"/>
                </mxCell>
                <mxCell id="40" style="edgeStyle=none;html=1;entryX=0.5;entryY=0;entryDx=0;entryDy=0;strokeColor=#FF0000;fontSize=14;" edge="1" parent="1" source="35" target="39">
                    <mxGeometry relative="1" as="geometry"/>
                </mxCell>
                <mxCell id="35" value="&lt;font style=&quot;&quot;&gt;&lt;font style=&quot;font-size: 14px;&quot;&gt;タス割り当ての&lt;br&gt;&lt;/font&gt;通知を受け取る&lt;br&gt;&lt;/font&gt;" style="rounded=1;whiteSpace=wrap;html=1;fontSize=14;fillColor=#CCE5FF;" vertex="1" parent="1">
                    <mxGeometry x="46" y="720" width="120" height="60" as="geometry"/>
                </mxCell>
                <mxCell id="38" style="edgeStyle=none;html=1;strokeColor=#FF0000;fontSize=14;entryX=1;entryY=0.5;entryDx=0;entryDy=0;" edge="1" parent="1" source="36" target="35">
                    <mxGeometry relative="1" as="geometry"/>
                </mxCell>
                <mxCell id="36" value="&lt;font style=&quot;&quot;&gt;PGにSlack&lt;br&gt;通知する&lt;br&gt;&lt;/font&gt;" style="rounded=1;whiteSpace=wrap;html=1;fontSize=14;fillColor=#CCE5FF;" vertex="1" parent="1">
                    <mxGeometry x="388" y="720" width="120" height="60" as="geometry"/>
                </mxCell>
                <mxCell id="42" style="edgeStyle=none;html=1;strokeColor=#FF0000;fontSize=14;" edge="1" parent="1" source="39" target="41">
                    <mxGeometry relative="1" as="geometry"/>
                </mxCell>
                <mxCell id="39" value="タスク詳細の&lt;br&gt;リンクをクリック" style="rounded=1;whiteSpace=wrap;html=1;fontSize=14;fillColor=#CCE5FF;" vertex="1" parent="1">
                    <mxGeometry x="46" y="820" width="120" height="60" as="geometry"/>
                </mxCell>
                <mxCell id="47" style="edgeStyle=none;html=1;strokeColor=#FF0000;fontSize=14;entryX=0.5;entryY=0;entryDx=0;entryDy=0;" edge="1" parent="1" source="41" target="48">
                    <mxGeometry relative="1" as="geometry">
                        <mxPoint x="448" y="910" as="targetPoint"/>
                    </mxGeometry>
                </mxCell>
                <mxCell id="41" value="&lt;font style=&quot;&quot;&gt;タスクを表示&lt;br&gt;&lt;/font&gt;" style="rounded=1;whiteSpace=wrap;html=1;fontSize=14;fillColor=#CCE5FF;" vertex="1" parent="1">
                    <mxGeometry x="388" y="820" width="120" height="60" as="geometry"/>
                </mxCell>
                <mxCell id="48" value="" style="ellipse;html=1;shape=endState;fillColor=strokeColor;fontSize=14;" vertex="1" parent="1">
                    <mxGeometry x="433" y="920" width="30" height="30" as="geometry"/>
                </mxCell>
                <mxCell id="49" value="&lt;font style=&quot;font-size: 14px;&quot;&gt;■⑤ステータス変更、⑥進捗管理&lt;/font&gt;" style="text;html=1;strokeColor=none;fillColor=none;align=left;verticalAlign=middle;whiteSpace=wrap;rounded=0;fontStyle=1" vertex="1" parent="1">
                    <mxGeometry x="780" width="230" height="30" as="geometry"/>
                </mxCell>
                <mxCell id="50" value="" style="rounded=0;whiteSpace=wrap;html=1;fontSize=14;fillColor=#FFFFCC;" vertex="1" parent="1">
                    <mxGeometry x="1311" y="65" width="170" height="60" as="geometry"/>
                </mxCell>
                <mxCell id="51" value="" style="rounded=0;whiteSpace=wrap;html=1;fontSize=14;fillColor=#FFFFCC;" vertex="1" parent="1">
                    <mxGeometry x="1141" y="65" width="170" height="60" as="geometry"/>
                </mxCell>
                <mxCell id="52" value="" style="rounded=0;whiteSpace=wrap;html=1;fontSize=14;fillColor=#FFFFCC;" vertex="1" parent="1">
                    <mxGeometry x="971" y="65" width="170" height="60" as="geometry"/>
                </mxCell>
                <mxCell id="53" value="" style="rounded=0;whiteSpace=wrap;html=1;fontSize=14;fillColor=#FFFFCC;" vertex="1" parent="1">
                    <mxGeometry x="800" y="65" width="170" height="60" as="geometry"/>
                </mxCell>
                <mxCell id="54" value="&lt;span style=&quot;font-size: 14px;&quot;&gt;PG&lt;/span&gt;" style="text;html=1;strokeColor=none;fillColor=none;align=center;verticalAlign=middle;whiteSpace=wrap;rounded=0;" vertex="1" parent="1">
                    <mxGeometry x="825" y="80" width="120" height="30" as="geometry"/>
                </mxCell>
                <mxCell id="55" value="&lt;span style=&quot;font-size: 14px;&quot;&gt;SE&lt;/span&gt;" style="text;html=1;strokeColor=none;fillColor=none;align=center;verticalAlign=middle;whiteSpace=wrap;rounded=0;" vertex="1" parent="1">
                    <mxGeometry x="996" y="80" width="120" height="30" as="geometry"/>
                </mxCell>
                <mxCell id="56" value="&lt;span style=&quot;font-size: 14px;&quot;&gt;タスク管理&lt;br&gt;システム&lt;br&gt;&lt;/span&gt;" style="text;html=1;strokeColor=none;fillColor=none;align=center;verticalAlign=middle;whiteSpace=wrap;rounded=0;" vertex="1" parent="1">
                    <mxGeometry x="1166" y="80" width="120" height="30" as="geometry"/>
                </mxCell>
                <mxCell id="57" value="&lt;span style=&quot;font-size: 14px;&quot;&gt;GitHub&lt;br&gt;&lt;/span&gt;" style="text;html=1;strokeColor=none;fillColor=none;align=center;verticalAlign=middle;whiteSpace=wrap;rounded=0;" vertex="1" parent="1">
                    <mxGeometry x="1336" y="80" width="120" height="30" as="geometry"/>
                </mxCell>
                <mxCell id="58" value="" style="rounded=0;whiteSpace=wrap;html=1;fontSize=14;fillColor=none;" vertex="1" parent="1">
                    <mxGeometry x="800" y="125" width="168" height="1015" as="geometry"/>
                </mxCell>
                <mxCell id="59" value="" style="rounded=0;whiteSpace=wrap;html=1;fontSize=14;fillColor=none;" vertex="1" parent="1">
                    <mxGeometry x="972" y="125" width="168" height="1015" as="geometry"/>
                </mxCell>
                <mxCell id="60" value="" style="rounded=0;whiteSpace=wrap;html=1;fontSize=14;fillColor=none;" vertex="1" parent="1">
                    <mxGeometry x="1142" y="125" width="168" height="1015" as="geometry"/>
                </mxCell>
                <mxCell id="61" value="" style="rounded=0;whiteSpace=wrap;html=1;fontSize=14;fillColor=none;" vertex="1" parent="1">
                    <mxGeometry x="1308" y="125" width="173" height="1015" as="geometry"/>
                </mxCell>
                <mxCell id="62" style="edgeStyle=none;html=1;fontSize=14;strokeColor=#FF0000;" edge="1" parent="1" source="63" target="65">
                    <mxGeometry relative="1" as="geometry"/>
                </mxCell>
                <mxCell id="63" value="" style="ellipse;whiteSpace=wrap;html=1;aspect=fixed;fontSize=14;fillColor=#000000;" vertex="1" parent="1">
                    <mxGeometry x="864" y="140" width="40" height="40" as="geometry"/>
                </mxCell>
                <mxCell id="94" style="edgeStyle=none;html=1;strokeColor=#FF0000;fontSize=12;" edge="1" parent="1" source="65" target="67">
                    <mxGeometry relative="1" as="geometry"/>
                </mxCell>
                <mxCell id="65" value="作業を開始する&lt;br&gt;&lt;font style=&quot;font-size: 12px;&quot;&gt;(ステータスを選択)&lt;/font&gt;" style="rounded=1;whiteSpace=wrap;html=1;fontSize=14;fillColor=#CCE5FF;" vertex="1" parent="1">
                    <mxGeometry x="824" y="220" width="120" height="60" as="geometry"/>
                </mxCell>
                <mxCell id="98" style="edgeStyle=none;html=1;entryX=0.5;entryY=0;entryDx=0;entryDy=0;strokeColor=#FF0000;fontSize=12;" edge="1" parent="1" source="67" target="95">
                    <mxGeometry relative="1" as="geometry"/>
                </mxCell>
                <mxCell id="67" value="ステータス変更&lt;br&gt;&lt;font style=&quot;font-size: 12px;&quot;&gt;（未着手 → 作業中）&lt;/font&gt;" style="rounded=1;whiteSpace=wrap;html=1;fontSize=14;fillColor=#CCE5FF;" vertex="1" parent="1">
                    <mxGeometry x="1166" y="220" width="120" height="60" as="geometry"/>
                </mxCell>
                <mxCell id="90" value="" style="ellipse;html=1;shape=endState;fillColor=strokeColor;fontSize=14;" vertex="1" parent="1">
                    <mxGeometry x="1214" y="1080" width="30" height="30" as="geometry"/>
                </mxCell>
                <mxCell id="108" style="edgeStyle=none;html=1;strokeColor=#FF0000;fontSize=12;" edge="1" parent="1" source="92" target="106">
                    <mxGeometry relative="1" as="geometry"/>
                </mxCell>
                <mxCell id="92" value="ステータス変更&lt;br&gt;&lt;font style=&quot;font-size: 10px;&quot;&gt;(作業中 → レビュー依頼中)&lt;/font&gt;" style="rounded=1;whiteSpace=wrap;html=1;fontSize=14;fillColor=#CCE5FF;" vertex="1" parent="1">
                    <mxGeometry x="1160" y="560" width="126" height="60" as="geometry"/>
                </mxCell>
                <mxCell id="111" style="edgeStyle=none;html=1;entryX=1;entryY=0;entryDx=0;entryDy=0;strokeColor=#FF0000;fontSize=12;" edge="1" parent="1" source="93" target="110">
                    <mxGeometry relative="1" as="geometry"/>
                </mxCell>
                <mxCell id="93" value="ステータス変更&lt;br&gt;&lt;font style=&quot;font-size: 12px;&quot;&gt;(依頼中 → レビュー中)&lt;/font&gt;" style="rounded=1;whiteSpace=wrap;html=1;fontSize=14;fillColor=#CCE5FF;" vertex="1" parent="1">
                    <mxGeometry x="1166" y="700" width="126" height="60" as="geometry"/>
                </mxCell>
                <mxCell id="99" style="edgeStyle=none;html=1;entryX=0.5;entryY=0;entryDx=0;entryDy=0;strokeColor=#FF0000;fontSize=12;" edge="1" parent="1" source="95" target="96">
                    <mxGeometry relative="1" as="geometry"/>
                </mxCell>
                <mxCell id="95" value="コーディング" style="rounded=1;whiteSpace=wrap;html=1;fontSize=14;fillColor=#CCE5FF;" vertex="1" parent="1">
                    <mxGeometry x="825" y="340" width="120" height="60" as="geometry"/>
                </mxCell>
                <mxCell id="100" style="edgeStyle=none;html=1;strokeColor=#FF0000;fontSize=12;" edge="1" parent="1" source="96" target="97">
                    <mxGeometry relative="1" as="geometry"/>
                </mxCell>
                <mxCell id="96" value="GitHubにプッシュ&lt;br&gt;(プルリク作成)" style="rounded=1;whiteSpace=wrap;html=1;fontSize=14;fillColor=#CCE5FF;" vertex="1" parent="1">
                    <mxGeometry x="824" y="450" width="120" height="60" as="geometry"/>
                </mxCell>
                <mxCell id="101" style="edgeStyle=none;html=1;entryX=1;entryY=0.5;entryDx=0;entryDy=0;strokeColor=#FF0000;fontSize=12;" edge="1" parent="1" source="97" target="95">
                    <mxGeometry relative="1" as="geometry"/>
                </mxCell>
                <mxCell id="104" style="edgeStyle=none;html=1;entryX=1;entryY=0;entryDx=0;entryDy=0;strokeColor=#FF0000;fontSize=12;" edge="1" parent="1" source="97" target="103">
                    <mxGeometry relative="1" as="geometry"/>
                </mxCell>
                <mxCell id="97" value="自動テスト" style="rhombus;fontSize=12;fillColor=#CCE5FF;" vertex="1" parent="1">
                    <mxGeometry x="1346" y="440" width="100" height="80" as="geometry"/>
                </mxCell>
                <mxCell id="102" value="NG" style="text;html=1;strokeColor=none;fillColor=none;align=center;verticalAlign=middle;whiteSpace=wrap;rounded=0;fontSize=12;" vertex="1" parent="1">
                    <mxGeometry x="1308" y="435" width="60" height="30" as="geometry"/>
                </mxCell>
                <mxCell id="107" style="edgeStyle=none;html=1;strokeColor=#FF0000;fontSize=12;" edge="1" parent="1" source="103" target="92">
                    <mxGeometry relative="1" as="geometry"/>
                </mxCell>
                <mxCell id="103" value="&lt;font style=&quot;font-size: 12px;&quot;&gt;&lt;font style=&quot;&quot;&gt;SEにレビューを依頼&lt;/font&gt;&lt;br&gt;ステータス変更&lt;/font&gt;" style="rounded=1;whiteSpace=wrap;html=1;fontSize=14;fillColor=#CCE5FF;" vertex="1" parent="1">
                    <mxGeometry x="820" y="560" width="124" height="60" as="geometry"/>
                </mxCell>
                <mxCell id="105" value="OK" style="text;html=1;strokeColor=none;fillColor=none;align=center;verticalAlign=middle;whiteSpace=wrap;rounded=0;fontSize=12;" vertex="1" parent="1">
                    <mxGeometry x="1311" y="490" width="60" height="30" as="geometry"/>
                </mxCell>
                <mxCell id="109" style="edgeStyle=none;html=1;strokeColor=#FF0000;fontSize=12;" edge="1" parent="1" source="106" target="93">
                    <mxGeometry relative="1" as="geometry"/>
                </mxCell>
                <mxCell id="106" value="レビュー着手&lt;br&gt;ステータス変更" style="rounded=1;whiteSpace=wrap;html=1;fontSize=14;fillColor=#CCE5FF;" vertex="1" parent="1">
                    <mxGeometry x="996" y="640" width="120" height="60" as="geometry"/>
                </mxCell>
                <mxCell id="113" style="edgeStyle=none;html=1;strokeColor=#FF0000;fontSize=12;" edge="1" parent="1" source="110" target="112">
                    <mxGeometry relative="1" as="geometry"/>
                </mxCell>
                <mxCell id="110" value="レビュー完了" style="rounded=1;whiteSpace=wrap;html=1;fontSize=14;fillColor=#CCE5FF;" vertex="1" parent="1">
                    <mxGeometry x="993" y="770" width="126" height="60" as="geometry"/>
                </mxCell>
                <mxCell id="116" style="edgeStyle=none;html=1;exitX=0.5;exitY=1;exitDx=0;exitDy=0;entryX=1;entryY=0;entryDx=0;entryDy=0;strokeColor=#FF0000;fontSize=12;" edge="1" parent="1" source="112" target="114">
                    <mxGeometry relative="1" as="geometry"/>
                </mxCell>
                <mxCell id="112" value="プルリクエスト&lt;br&gt;承認" style="rounded=1;whiteSpace=wrap;html=1;fontSize=14;fillColor=#CCE5FF;" vertex="1" parent="1">
                    <mxGeometry x="1333" y="770" width="126" height="60" as="geometry"/>
                </mxCell>
                <mxCell id="117" style="edgeStyle=none;html=1;strokeColor=#FF0000;fontSize=12;" edge="1" parent="1" source="114" target="115">
                    <mxGeometry relative="1" as="geometry"/>
                </mxCell>
                <mxCell id="114" value="通知を受け取る" style="rounded=1;whiteSpace=wrap;html=1;fontSize=14;fillColor=#CCE5FF;" vertex="1" parent="1">
                    <mxGeometry x="825" y="860" width="126" height="60" as="geometry"/>
                </mxCell>
                <mxCell id="121" style="edgeStyle=none;html=1;entryX=0.5;entryY=0;entryDx=0;entryDy=0;strokeColor=#FF0000;fontSize=12;" edge="1" parent="1" source="115" target="118">
                    <mxGeometry relative="1" as="geometry"/>
                </mxCell>
                <mxCell id="115" value="&lt;font style=&quot;font-size: 12px;&quot;&gt;ステータス変更&lt;br&gt;(レビュー中 → 完了)&lt;/font&gt;" style="rounded=1;whiteSpace=wrap;html=1;fontSize=14;fillColor=#CCE5FF;" vertex="1" parent="1">
                    <mxGeometry x="1160" y="860" width="126" height="60" as="geometry"/>
                </mxCell>
                <mxCell id="122" style="edgeStyle=none;html=1;entryX=0;entryY=0.5;entryDx=0;entryDy=0;strokeColor=#FF0000;fontSize=12;" edge="1" parent="1" source="118" target="119">
                    <mxGeometry relative="1" as="geometry"/>
                </mxCell>
                <mxCell id="118" value="&lt;span style=&quot;font-size: 12px;&quot;&gt;(任意のタイミング)&lt;br&gt;進捗をチェック&lt;/span&gt;&lt;span style=&quot;color: rgba(0, 0, 0, 0); font-family: monospace; font-size: 0px; text-align: start;&quot;&gt;%3CmxGraphModel%3E%3Croot%3E%3CmxCell%20id%3D%220%22%2F%3E%3CmxCell%20id%3D%221%22%20parent%3D%220%22%2F%3E%3CmxCell%20id%3D%222%22%20value%3D%22%26lt%3Bfont%20style%3D%26quot%3Bfont-size%3A%2012px%3B%26quot%3B%26gt%3B%E3%82%B9%E3%83%86%E3%83%BC%E3%82%BF%E3%82%B9%E5%A4%89%E6%9B%B4%26lt%3Bbr%26gt%3B(%E3%83%AC%E3%83%93%E3%83%A5%E3%83%BC%E4%B8%AD%20%E2%86%92%20%E5%AE%8C%E4%BA%86)%26lt%3B%2Ffont%26gt%3B%22%20style%3D%22rounded%3D1%3BwhiteSpace%3Dwrap%3Bhtml%3D1%3BfontSize%3D14%3BfillColor%3D%23CCE5FF%3B%22%20vertex%3D%221%22%20parent%3D%221%22%3E%3CmxGeometry%20x%3D%221160%22%20y%3D%22860%22%20width%3D%22126%22%20height%3D%2260%22%20as%3D%22geometry%22%2F%3E%3C%2FmxCell%3E%3C%2Froot%3E%3C%2FmxGraphModel%3E&lt;/span&gt;&lt;span style=&quot;font-size: 12px;&quot;&gt;&lt;br&gt;&lt;/span&gt;" style="rounded=1;whiteSpace=wrap;html=1;fontSize=14;fillColor=#CCE5FF;" vertex="1" parent="1">
                    <mxGeometry x="993" y="970" width="126" height="60" as="geometry"/>
                </mxCell>
                <mxCell id="125" style="edgeStyle=none;html=1;strokeColor=#FF0000;fontSize=12;entryX=0.5;entryY=0;entryDx=0;entryDy=0;" edge="1" parent="1" source="119" target="90">
                    <mxGeometry relative="1" as="geometry">
                        <mxPoint x="1220" y="1100" as="targetPoint"/>
                    </mxGeometry>
                </mxCell>
                <mxCell id="119" value="&lt;span style=&quot;font-size: 12px;&quot;&gt;マイルストーン内の&lt;br&gt;タスク完了割合を&lt;br&gt;％表示&lt;br&gt;&lt;/span&gt;" style="rounded=1;whiteSpace=wrap;html=1;fontSize=14;fillColor=#CCE5FF;" vertex="1" parent="1">
                    <mxGeometry x="1166" y="970" width="126" height="60" as="geometry"/>
                </mxCell>
            </root>
        </mxGraphModel>
    </diagram>
</mxfile>